<svg width="61" height="61" viewBox="0 0 61 61" fill="none" xmlns="http://www.w3.org/2000/svg">
<path d="M50.2996 37.9471C45.0638 43.1575 37.5658 44.7588 30.9829 42.7L19.0117 54.6459C18.1475 55.5354 16.4446 56.0692 15.2246 55.8913L9.68375 55.1288C7.85375 54.8746 6.15083 53.1463 5.87125 51.3163L5.10875 45.7754C4.93083 44.5554 5.51541 42.8525 6.35416 41.9884L18.3 30.0425C16.2667 23.4342 17.8425 15.9363 23.0783 10.7259C30.5762 3.22794 42.7508 3.22794 50.2742 10.7259C57.7975 18.2238 57.7975 30.4492 50.2996 37.9471Z" stroke="#3A65D2" stroke-width="3.8125" stroke-miterlimit="10" stroke-linecap="round" stroke-linejoin="round"/>
<path d="M17.5121 44.4537L23.3579 50.2996" stroke="#3A65D2" stroke-width="3.8125" stroke-miterlimit="10" stroke-linecap="round" stroke-linejoin="round"/>
<path d="M36.8542 27.9584C38.9598 27.9584 40.6667 26.2515 40.6667 24.1459C40.6667 22.0403 38.9598 20.3334 36.8542 20.3334C34.7486 20.3334 33.0417 22.0403 33.0417 24.1459C33.0417 26.2515 34.7486 27.9584 36.8542 27.9584Z" stroke="#3A65D2" stroke-width="3.8125" stroke-linecap="round" stroke-linejoin="round"/>
</svg>
