<svg width="61" height="61" viewBox="0 0 61 61" fill="none" xmlns="http://www.w3.org/2000/svg">
<path d="M30.5 30.5C37.5186 30.5 43.2084 24.8103 43.2084 17.7917C43.2084 10.7731 37.5186 5.08337 30.5 5.08337C23.4814 5.08337 17.7917 10.7731 17.7917 17.7917C17.7917 24.8103 23.4814 30.5 30.5 30.5Z" stroke="#4C4AB9" stroke-width="3.8125" stroke-linecap="round" stroke-linejoin="round"/>
<path d="M8.66711 55.9167C8.66711 46.0804 18.4525 38.125 30.5 38.125C32.94 38.125 35.3038 38.4554 37.515 39.0654" stroke="#4C4AB9" stroke-width="3.8125" stroke-linecap="round" stroke-linejoin="round"/>
<path d="M55.9166 45.75C55.9166 47.6563 55.3829 49.4609 54.4425 50.9859C53.9088 51.9009 53.2225 52.7142 52.4346 53.375C50.6554 54.9763 48.3171 55.9167 45.75 55.9167C42.0391 55.9167 38.8112 53.9342 37.0574 50.9859C36.117 49.4609 35.5833 47.6563 35.5833 45.75C35.5833 42.5475 37.0575 39.6755 39.3958 37.8201C41.1496 36.4221 43.3608 35.5834 45.75 35.5834C51.3671 35.5834 55.9166 40.133 55.9166 45.75Z" stroke="#4C4AB9" stroke-width="3.8125" stroke-miterlimit="10" stroke-linecap="round" stroke-linejoin="round"/>
<path d="M41.785 45.7501L44.3012 48.2663L49.715 43.2593" stroke="#4C4AB9" stroke-width="3.8125" stroke-linecap="round" stroke-linejoin="round"/>
</svg>
